# xmcd
#
# Track frame offsets: 
#        183
#        13145
#        27550
#        42388
#        55430
#        68995
#        81910
#        92855
#        106790
#        121098
#        136803
#        148785
#        162470
#        177070
#        191003
#        205853
#        218613
#        232198
#        245553
#        258013
#        269788
#        282178
#
# Disc length: 3934 seconds
#
# Revision: 2
# Processed by: cddbd v1.5.2PL0 Copyright (c) Steve Scherf et al.
# Submitted via: ExactAudioCopyFreeDBPlugin 1.0
#
DISCID=4c0f5c16
DTITLE=Memphis Minnie - Bumble Bee: The Essential Recordings Of Memphi
DTITLE=s Minnie
DYEAR=1994
DGENRE=Blues
TTITLE0=What's The Matter With The Mill
TTITLE1=When The Levee Breaks
TTITLE2=Bumble Bee
TTITLE3=Plymouth Rock Blues
TTITLE4=New Dirty Dozen
TTITLE5=Frankie Jean (That Trottin' Fool)
TTITLE6=I Don't Want That Junk Outa You
TTITLE7=Picking The Blues
TTITLE8=Let's Go To Town
TTITLE9=Crazy Cryin' Blues
TTITLE10=Soo Cow Soo
TTITLE11=Where Is My Good Man At
TTITLE12=Ain't No Use Trying To Tell On Me
TTITLE13=You Got To Move
TTITLE14=If You See My Rooster (Please Run Him Home)
TTITLE15=Dirty Mother For You
TTITLE16=Ice Man (Come On Up)
TTITLE17=Caught Me Wrong Again
TTITLE18=Nothing In Rambling
TTITLE19=In My Girlish Days
TTITLE20=Me And My Chauffeur Blues
TTITLE21=Black Rat Swing
EXTD=YEAR: 1994
EXTT0=
EXTT1=
EXTT2=
EXTT3=
EXTT4=
EXTT5=
EXTT6=
EXTT7=
EXTT8=
EXTT9=
EXTT10=
EXTT11=
EXTT12=
EXTT13=
EXTT14=
EXTT15=
EXTT16=
EXTT17=
EXTT18=
EXTT19=
EXTT20=
EXTT21=
PLAYORDER=
